<svg width="40" height="40" viewBox="0 0 26 27" fill="none" xmlns="http://www.w3.org/2000/svg">
<rect y="0.324585" width="26" height="26" rx="13" fill="#D9D9D9"/>
<g clip-path="url(#clip0_2119_4)">
<path d="M13 16.429C11.0782 16.429 9.51465 17.9925 9.51465 19.9144C9.51465 20.1409 9.69829 20.3245 9.9248 20.3245H16.0753C16.3018 20.3245 16.4854 20.1409 16.4854 19.9144C16.4854 17.9925 14.9219 16.429 13 16.429Z" fill="#404142"/>
<path d="M11.2136 12.4446C11.2136 11.7324 10.5628 11.1985 9.86164 11.3372L9.11295 11.4871C8.58205 11.5933 8.19673 12.0634 8.19673 12.6048V14.8385C7.22007 14.3175 5.9851 15.068 6.00014 16.1802C6.07591 18.1785 8.94148 18.1781 9.01703 16.1802V14.1002L10.0205 13.8995C10.7118 13.7615 11.2136 13.1497 11.2136 12.4446Z" fill="#404142"/>
<path d="M10.1807 10.1768L12.5899 11.3814V7.38902L10.5476 6.36785C10.4204 6.30428 10.2695 6.31106 10.1485 6.38582C10.0276 6.46055 9.954 6.59256 9.954 6.73472V9.80996C9.954 9.9653 10.0418 10.1073 10.1807 10.1768Z" fill="#404142"/>
<path d="M15.8194 10.177C15.9583 10.1075 16.0461 9.9655 16.0461 9.81014V6.73493C16.0461 6.59277 15.9725 6.46075 15.8516 6.38602C15.7307 6.31129 15.5797 6.30454 15.4525 6.36806L13.4102 7.38923V11.3816L15.8194 10.177Z" fill="#404142"/>
<path d="M18.3347 11.1572C17.9958 11.1572 17.6681 11.2608 17.3932 11.4491C17.1184 11.2608 16.7906 11.1572 16.4517 11.1572C15.5335 11.1572 14.7865 11.9042 14.7865 12.8224C14.7865 14.641 17.1318 15.6671 17.2317 15.7099C17.3348 15.7541 17.4516 15.7541 17.5548 15.7099C17.6546 15.6671 20 14.641 20 12.8224C20 11.9042 19.2529 11.1572 18.3347 11.1572Z" fill="#404142"/>
<path d="M14.5231 14.906C14.5231 14.0648 13.8412 13.3829 13 13.3829C10.982 13.4576 10.9825 16.3546 13.0001 16.429C13.8412 16.429 14.5231 15.7471 14.5231 14.906Z" fill="#404142"/>
</g>
<defs>
<clipPath id="clip0_2119_4">
<rect width="14" height="14" fill="white" transform="translate(6 6.32458)"/>
</clipPath>
</defs>
</svg>
